PathFileType	4	(X/Y/Z)	Patient4_TMGait_0pt6_02_right_21.trc.trc
DataRate	CameraRate	NumFrames	NumMarkers	Units	OrigDataRate	OrigDataStartFrame	OrigNumFrames
84.848484848485	84.848484848485	5	33	mm	84.848484848485	1	       141
Frame#	Time	Sacral			L.Shoulder			Chest			R.Shoulder			Neck			R.ASIS			L.ASIS			R.Thigh.Superior			R.Thigh.Lateral			R.Thigh.Inferior			R.Patella			L.Thigh.Superior			L.Thigh.Lateral			L.Thigh.Inferior			L.Patella			L.Shank.Superior			L.Shank.Lateral			L.Shank.Inferior			R.Shank.Superior			R.Shank.Lateral			R.Shank.Inferior			R.Heel			R.Midfoot.Superior			R.Midfoot.Lateral			R.Toe			L.Heel			L.Midfoot.Lateral			L.Midfoot.Superior			L.Toe			L.Elbow			L.Wrist			R.Elbow			R.Wrist			
		X1	Y1	Z1	X2	Y2	Z2	X3	Y3	Z3	X4	Y4	Z4	X5	Y5	Z5	X6	Y6	Z6	X7	Y7	Z7	X8	Y8	Z8	X9	Y9	Z9	X10	Y10	Z10	X11	Y11	Z11	X12	Y12	Z12	X13	Y13	Z13	X14	Y14	Z14	X15	Y15	Z15	X16	Y16	Z16	X17	Y17	Z17	X18	Y18	Z18	X19	Y19	Z19	X20	Y20	Z20	X21	Y21	Z21	X22	Y22	Z22	X23	Y23	Z23	X24	Y24	Z24	X25	Y25	Z25	X26	Y26	Z26	X27	Y27	Z27	X28	Y28	Z28	X29	Y29	Z29	X30	Y30	Z30	X31	Y31	Z31	X32	Y32	Z32	X33	Y33	Z33	

1	25.220000000000	819.704061634505	1015.309778039931	431.653250187343	1012.749087087274	1438.508977343253	249.926135929939	1111.006633242327	1364.712156673203	411.148342986427	1027.731919937820	1443.385278650401	582.465492720863	1012.824129478099	1499.815515001834	401.120559082604	1044.450401661349	952.024633410810	553.757002424655	1034.351328556264	961.464588238647	280.296960263775	1135.201964549776	791.984116729773	517.805432592017	1107.266839337861	668.653219972708	587.482295825560	1196.327012730779	636.640430566427	503.730247987400	1223.699128492423	521.589331988359	522.777425988250	1084.834309499886	754.060704363734	310.683633954162	993.976410753004	638.655799205912	254.424364003813	1076.492613767575	561.235091494745	320.095874935294	1075.381314519559	491.578538082518	331.086471449959	1049.373602271311	419.824286073847	322.865430035080	959.601715416492	303.779727991364	277.844669294037	1014.917107534508	194.524273139281	348.302907268728	1145.953285600184	445.292098911308	531.055977235111	1024.227090115087	406.327579330829	591.681265376633	1008.127692091888	298.166430031892	542.423646793636	807.914743959325	246.013966413802	514.004259774890	970.154892710755	170.829047474411	552.194758752408	861.526579876603	180.513123893114	586.671308926897	1025.571786546373	54.255163927851	579.301333280051	890.547884290300	38.392909672514	400.354478550255	957.661417708711	35.903515863462	313.410460102152	1042.766807254672	96.943455750096	334.155937842004	1168.661952869151	44.418107284626	294.828261552941	1046.905622647397	1100.328451576843	102.508697255671	1213.939830426187	897.138993773764	113.589869311780	958.111650280754	1100.281524557290	699.527432571107	1023.014073035103	845.158384884553	702.469936601242	
2	25.231785714286	818.519809583251	1015.985340516067	430.606228415273	1014.406545357815	1439.481640715210	250.502157633217	1111.157236943541	1364.683983817621	412.146009014284	1027.032576860556	1443.046983587321	583.279191821398	1013.333985983907	1500.181362876986	401.942736348367	1042.837990314377	952.792274912136	553.379446790426	1034.127252386773	962.188464941133	279.703779058646	1135.164432379938	795.198536599084	517.235537994941	1109.172309822420	671.717410162643	587.399189915761	1198.261876227435	640.728154631549	503.409380439751	1227.670192062471	527.160534773973	522.716854411075	1081.676992928517	753.337311674429	310.903633277305	989.767453793689	638.810234288024	253.933757697851	1070.941928303916	560.560072617596	319.985919575967	1069.124310130781	491.047188594781	330.879318820725	1042.994646156493	419.606954345319	322.627753589809	952.912013393846	303.829107644489	277.585648005999	1007.771270492887	194.432963413307	348.157851656323	1153.531401676950	448.579198409746	531.387676318627	1034.518181029166	403.895634052443	592.584419079043	1023.643388168469	295.187742305336	543.461788918449	826.702047024224	233.037214289739	516.005847399768	992.225536700963	166.750328482605	553.611052452008	883.775808888493	170.734448482124	588.572088065336	1053.531317050129	53.412259439010	580.409368682412	883.026674771429	38.451201426302	400.302548911471	950.151902160316	35.875820261847	313.379505761178	1035.318320920590	96.890055608224	334.103188051388	1161.212052940952	44.187726650439	294.786802987191	1051.597615733149	1103.315282679028	100.729937049206	1228.501293330150	910.243098676310	112.989926573288	948.458179564217	1102.199604541712	699.284637963467	997.880337697103	845.429876121446	704.599281121659	
3	25.243571428571	817.343734237462	1016.661379939569	429.572785510335	1016.063067718351	1440.415754193681	251.084093363037	1111.325348286561	1364.630310449824	413.139864473088	1026.367961803680	1442.704158280523	584.083339861440	1013.862277423047	1500.521859960121	402.765690655078	1041.248174395031	953.529006031316	553.020440609527	1033.848372642957	962.853365310612	279.144282080207	1135.077237422211	798.298582563735	516.696472281247	1110.878799004005	674.632666389688	587.321906442314	1200.013690743366	644.607546468343	503.147923152856	1231.375922495569	532.552195445165	522.715840637983	1078.565768143913	752.620042734812	311.128987524932	985.620513995877	638.956847861078	253.455960688919	1065.471495444938	559.893989570591	319.885805872277	1062.956445713094	490.519000238170	330.681771012010	1036.708612527501	419.385780369367	322.400528514308	946.314274323049	303.876034261331	277.334056512406	1000.718561846144	194.337309642983	348.019729761133	1160.875325641713	451.737071169819	531.754365986407	1044.705697674239	401.300504494667	593.543273873577	1039.114284823770	292.124657360457	544.527896938796	845.629091404198	219.910753434533	518.043355397142	1014.333042954175	162.635159268422	555.022583509334	906.152855015549	160.891411724683	590.500360088982	1081.545303215079	52.672316123348	581.529567896153	875.598303402294	38.504272096847	400.249572722740	942.731660839923	35.849260525247	313.348558666612	1027.957591179813	96.837608845248	334.053082137490	1153.849003293638	43.962914443677	294.745305493295	1056.181982453948	1106.227612738152	99.015474358339	1242.731292018477	923.265057646228	112.461461306633	938.882735237727	1104.206806784418	699.111496229211	973.262629818972	845.939164158419	706.626481821321	
4	25.255357142857	816.194089318148	1017.325971499940	428.574310060670	1017.715743819897	1441.269954952795	251.683885772325	1111.524748895328	1364.523705804131	414.134260013683	1025.769487481219	1442.352597869342	584.875426258783	1014.424337468322	1500.810425636726	403.593244264975	1039.705666085748	954.198349636630	552.709489691462	1033.480391852102	963.405023233815	278.655225438945	1134.851426014885	801.105518446535	516.245459339522	1112.134908719011	677.220552740705	587.295877961671	1201.328697832894	648.022882728296	503.023913512322	1234.487244703623	537.563333557205	522.841841715342	1075.534214188643	751.903738437233	311.371049571200	981.578670220768	639.083847127489	253.008111716999	1060.133671497379	559.235786959792	319.808974635778	1056.931222021566	489.987934082565	330.508286325056	1030.567781902107	419.149379794105	322.199041419032	939.852513326787	303.918142061396	277.100618433821	993.792845845468	194.229314477983	347.897969140400	1167.722473127624	454.632683769794	532.208541040809	1054.705788817559	398.373009406784	594.622865104952	1054.544114233366	288.924718477504	545.653539464637	864.981350250476	206.498086240379	520.134148464519	1036.610114112604	158.526730333046	556.435466393568	928.918842792094	150.956411576787	592.464238918361	1109.758966690981	52.262306024904	582.662467284314	868.286121972808	38.550512312634	400.194822830776	935.420753077749	35.825750613184	313.318234891580	1020.704649015521	96.786517244411	334.009196974241	1146.590438654742	43.746068713637	294.704161426931	1060.578211063470	1108.993426524099	97.437744406228	1256.342969729883	936.186712872991	112.094821072207	929.429292148325	1106.410977885626	699.059473622493	949.566444254168	846.930835854338	708.458293889120	
5	25.267142857143	815.091467192373	1017.963563845232	427.632268833982	1019.360135721885	1442.008956253510	252.311787374969	1111.765313043176	1364.341202455277	415.133772820870	1025.260229415446	1441.988901899721	585.651217015737	1015.030828156828	1501.024834040417	404.428757161318	1038.231157850990	954.767754911222	552.475097208150	1033.010927526750	963.805902720090	278.264413810253	1134.401850753904	803.449416006081	515.937583984376	1112.713302583139	679.321668156621	587.368026173166	1201.971993358151	650.745101953090	503.106907355369	1236.714986429888	542.020462436501	523.150905224258	1072.603271316857	751.179928129578	311.640897757204	977.671815597184	639.179826160004	252.606185080880	1054.965488397997	558.581473940983	319.766290935704	1051.084394649414	489.447465382769	330.371461867645	1024.604509819488	418.885757949920	322.037333532200	933.549350103025	303.953351528126	276.895733088161	987.004897109271	194.101406246695	347.801483588366	1173.848549675294	457.158304795594	532.796252688475	1064.460777403235	394.983607950368	595.879944021757	1069.947882288647	285.568913178366	546.861887245798	885.041402164064	192.717461885205	522.285980959585	1059.189818983415	154.509910877725	557.852431204840	952.329300931983	140.946271922543	594.459555340346	1138.306684226036	52.433384486765	583.796123325012	861.087118730142	38.590097721179	400.137987895570	928.214803314422	35.806699369284	313.289629796385	1013.555609358066	96.736725282842	333.975012282667	1139.430211178022	43.537976038222	294.663918532142	1064.732164800828	1111.553029208774	96.057866863961	1269.117416521479	949.004664266621	111.968184747636	920.129517286929	1108.902288275589	699.158289615099	927.081972864469	848.591460285487	710.026609721661	
